<svg width="14" height="17" viewBox="0 0 14 17" fill="none" xmlns="http://www.w3.org/2000/svg">
<path d="M11.375 5.66667H12.25C12.7141 5.66667 13.1592 5.83724 13.4874 6.14088C13.8156 6.44451 14 6.85632 14 7.28571V15.381C14 15.8104 13.8156 16.2222 13.4874 16.5258C13.1592 16.8294 12.7141 17 12.25 17H1.75C0.77875 17 0 16.2714 0 15.381V7.28571C0 6.85632 0.184374 6.44451 0.512563 6.14088C0.840752 5.83724 1.28587 5.66667 1.75 5.66667H9.625V4.04762C9.625 3.40352 9.34844 2.78581 8.85616 2.33036C8.36387 1.87491 7.69619 1.61905 7 1.61905C6.30381 1.61905 5.63613 1.87491 5.14384 2.33036C4.65156 2.78581 4.375 3.40352 4.375 4.04762V5.66667H2.625V4.04762C2.625 2.97412 3.08594 1.9446 3.90641 1.18552C4.72688 0.426444 5.83968 0 7 0C7.57453 0 8.14344 0.104695 8.67424 0.308107C9.20504 0.511519 9.68734 0.809664 10.0936 1.18552C10.4998 1.56138 10.8221 2.00758 11.042 2.49866C11.2618 2.98974 11.375 3.51608 11.375 4.04762V5.66667ZM7 12.9524C6.53587 12.9524 6.09075 12.7818 5.76256 12.4782C5.43437 12.1745 5.25 11.7627 5.25 11.3333C5.25 10.9039 5.43437 10.4921 5.76256 10.1885C6.09075 9.88486 6.53587 9.71429 7 9.71429C7.46413 9.71429 7.90925 9.88486 8.23744 10.1885C8.56563 10.4921 8.75 10.9039 8.75 11.3333C8.75 11.7627 8.56563 12.1745 8.23744 12.4782C7.90925 12.7818 7.46413 12.9524 7 12.9524ZM12.25 15.381V7.28571H1.75V15.381H12.25Z" fill="#F5F1E6"/>
</svg>
